<?xml version="1.0" encoding="UTF-8" standalone="no"?>
<svg width="27px" height="17px" viewBox="0 0 27 17" version="1.1" xmlns="http://www.w3.org/2000/svg" xmlns:xlink="http://www.w3.org/1999/xlink" xmlns:sketch="http://www.bohemiancoding.com/sketch/ns">
    <!-- Generator: Sketch 3.3.3 (12081) - http://www.bohemiancoding.com/sketch -->
    <title>tripadvisor_icon</title>
    <desc>Created with Sketch.</desc>
    <defs></defs>
    <g id="Welcome" stroke="none" stroke-width="1" fill="none" fill-rule="evenodd" sketch:type="MSPage">
        <g id="home" sketch:type="MSArtboardGroup" transform="translate(-170.000000, -7.000000)">
            <g id="tripadvisor_icon" sketch:type="MSLayerGroup" transform="translate(170.000000, 7.000000)">
                <g id="Group-8" sketch:type="MSShapeGroup">
                    <path d="M26.3903906,11.3621026 C25.9651406,13.1497179 24.9728906,14.5428462 23.4667969,15.5301538 C22.3889062,16.235 21.1992187,16.5723846 19.9285312,16.5789231 C19.3948594,16.5824103 18.8624531,16.5074359 18.3418594,16.3679487 C17.0694844,16.0275128 15.9802031,15.3736667 15.0820312,14.3806923 C14.9634844,14.2516667 14.8512656,14.1152308 14.7259687,13.9670256 C14.2513594,14.6993333 13.7835,15.4176923 13.3055156,16.1569744 C12.8275312,15.4194359 12.366,14.7076154 11.9065781,13.9979744 C11.8749375,14.0162821 11.8669219,14.0180256 11.8601719,14.0232564 C11.8504687,14.0319744 11.8403437,14.0437436 11.8323281,14.0537692 C10.7464219,15.3784615 9.37996875,16.1909744 7.71567187,16.4634103 C6.78965625,16.6146667 5.87165625,16.5601795 4.97348437,16.3047436 C3.69815625,15.9420769 2.61351562,15.2476923 1.73854687,14.2224615 C0.88340625,13.2194615 0.3526875,12.0564872 0.153140625,10.7317949 C-0.0759375,9.49733333 0.2025,8.30733333 0.272109375,8.01789744 C0.472921875,7.17835897 0.823921875,6.40682051 1.30528125,5.69717949 C1.339875,5.64748718 1.35126562,5.559 1.3348125,5.49797436 C1.13864062,4.75346154 0.80071875,4.07607692 0.403734375,3.42746154 C0.303328125,3.26225641 0.18309375,3.1105641 0.070875,2.95233333 L0.070875,2.89610256 C0.094078125,2.89958974 0.115171875,2.90438462 0.1366875,2.90438462 C1.4715,2.90438462 2.804625,2.90438462 4.1394375,2.90264103 C4.19723437,2.90264103 4.26178125,2.87735897 4.31114062,2.84510256 C5.24854687,2.22351282 6.24754687,1.73138462 7.29717187,1.34823077 C8.05359375,1.07230769 8.82646875,0.857846154 9.61410937,0.699615385 C10.3772812,0.546179487 11.1434062,0.438948718 11.9196562,0.386205128 C13.8096562,0.23625641 15.319125,0.442435897 16.3244531,0.587153846 C17.0644219,0.696128205 17.789625,0.888358974 18.5063906,1.11676923 C19.75725,1.5134359 20.9372344,2.06658974 22.0480312,2.78364103 C22.1252344,2.83289744 22.2290156,2.86515385 22.3197187,2.86515385 C23.6233125,2.87038462 24.9269062,2.86864103 26.2305,2.87038462 C26.3359687,2.87038462 26.43975,2.88084615 26.5452187,2.88738462 C26.5452187,2.91310256 26.5485937,2.92487179 26.5435312,2.93010256 C26.4823594,3.02730769 26.4216094,3.12407692 26.3604375,3.21953846 C25.9191562,3.92089744 25.5398906,4.65320513 25.3175625,5.46353846 C25.2926719,5.55246154 25.2876094,5.62394872 25.3437187,5.70894872 C26.5055625,7.43205128 26.8747031,9.32210256 26.3903906,11.3621026 Z M15.4444219,4.6414359 C16.6163906,3.53120513 18.0119531,2.94884615 19.5939844,2.82461538 C17.715375,1.96110256 15.7346719,1.59494872 13.6944844,1.55441026 C11.3775469,1.50646154 9.12304687,1.86084615 6.97064062,2.79366667 C8.5809375,2.89435897 9.99464062,3.47497436 11.1893906,4.59697436 C12.3811875,5.71723077 13.0798125,7.11515385 13.3333594,8.76023077 C13.5940781,7.13389744 14.2745625,5.74992308 15.4444219,4.6414359 Z" id="Fill-7" fill="#023832"></path>
                    <path d="M19.834875,4.24302564 C16.9425,4.30405128 14.6782969,6.71369231 14.6517187,9.69348718 C14.6517187,12.7190513 17.0281406,15.1932051 19.9466719,15.181 C22.8782812,15.1692308 25.2433125,12.7665641 25.241625,9.707 C25.2399375,6.55153846 22.7647969,4.1815641 19.834875,4.24302564 L19.834875,4.24302564 Z M20.0736562,13.0137179 C18.1701562,13.09 16.6492969,11.5238205 16.6492969,9.62330769 C16.6509844,7.70274359 18.1836562,6.20630769 19.9369687,6.2385641 C21.7497656,6.23507692 23.2195781,7.74371795 23.2195781,9.61502564 C23.2195781,11.4946154 21.7742344,12.9470256 20.0736562,13.0137179 L20.0736562,13.0137179 Z" id="Fill-5" fill="#F5F5F5"></path>
                    <path d="M6.60825,7.4115641 C5.44978125,7.41330769 4.47904688,8.42284615 4.48242188,9.62330769 C4.48579688,10.8390256 5.45484375,11.8367949 6.63482813,11.8402821 C7.806375,11.8437692 8.77542188,10.8359744 8.77373438,9.61676923 C8.77035938,8.38884615 7.8080625,7.40807692 6.60825,7.4115641 L6.60825,7.4115641 Z M6.63482813,10.7592564 C6.01340625,10.7592564 5.53373438,10.263641 5.53373438,9.61851282 C5.53373438,8.98341026 6.01340625,8.49128205 6.63145313,8.49128205 C7.2410625,8.49128205 7.732125,8.9934359 7.7338125,9.6215641 C7.7371875,10.2448974 7.2410625,10.7557692 6.63482813,10.7592564 L6.63482813,10.7592564 Z" id="Fill-4" fill="#F5F5F5"></path>
                    <path d="M6.70696875,4.22079487 C3.85804688,4.19507692 1.37278125,6.65397436 1.42214063,9.78371795 C1.468125,12.7020513 3.796875,15.1762051 6.76645313,15.1504872 C9.66853125,15.1247692 12.0036094,12.6745897 12.0086719,9.70874359 C12.0120469,6.66225641 9.65039063,4.22079487 6.70696875,4.22079487 L6.70696875,4.22079487 Z M6.79303125,13.0137179 C4.88278125,13.1039487 3.34209375,11.530359 3.34546875,9.62025641 C3.35010938,7.68574359 4.89290625,6.20630769 6.63778125,6.2385641 C8.44889063,6.23682051 9.9208125,7.74894872 9.9140625,9.62025641 C9.9106875,11.513359 8.46534375,12.9352564 6.79303125,13.0137179 L6.79303125,13.0137179 Z" id="Fill-3" fill="#F5F5F5"></path>
                    <path d="M19.9466719,7.4115641 C18.7586719,7.4115641 17.793,8.39930769 17.7879375,9.61502564 C17.782875,10.8272564 18.7552969,11.8367949 19.9302187,11.8402821 C21.1085156,11.8437692 22.075875,10.8442564 22.075875,9.62505128 C22.075875,8.40410256 21.1199062,7.4115641 19.9466719,7.4115641 L19.9466719,7.4115641 Z M19.9466719,10.7470513 C19.3370625,10.7470513 18.8476875,10.2501282 18.849375,9.63551282 C18.8510625,8.99517949 19.3256719,8.50130769 19.9386562,8.50130769 C20.54025,8.50130769 21.0325781,9.00869231 21.02625,9.62679487 C21.0211875,10.2448974 20.536875,10.7470513 19.9466719,10.7470513 L19.9466719,10.7470513 Z" id="Fill-2" fill="#F5F5F5"></path>
                </g>
            </g>
        </g>
    </g>
</svg>