<?xml version="1.0" encoding="UTF-8" standalone="no"?>
<svg width="21px" height="16px" viewBox="0 0 21 16" version="1.1" xmlns="http://www.w3.org/2000/svg" xmlns:xlink="http://www.w3.org/1999/xlink" xmlns:sketch="http://www.bohemiancoding.com/sketch/ns">
    <!-- Generator: Sketch 3.3.3 (12081) - http://www.bohemiancoding.com/sketch -->
    <title>Twiitter_icon</title>
    <desc>Created with Sketch.</desc>
    <defs></defs>
    <g id="Welcome" stroke="none" stroke-width="1" fill="none" fill-rule="evenodd" sketch:type="MSPage">
        <g id="home" sketch:type="MSArtboardGroup" transform="translate(-237.000000, -8.000000)" fill="#023832">
            <g id="Twiitter_icon" sketch:type="MSLayerGroup" transform="translate(237.000000, 8.000000)">
                <path d="M20.920809,7.61007385 C20.2424802,7.61647318 19.5551923,7.52688258 18.8768635,7.33490273 L18.8781434,7.2952269 C19.7279742,7.18259872 20.5227707,6.76792225 21.1025499,6.11775049 C20.8542559,6.1548666 19.6729399,6.29181222 18.6708051,6.07167533 C18.3431595,5.15273179 17.6456327,4.36561441 16.6729348,3.95477753 C14.6187505,3.08958834 12.6451976,4.2427473 11.95535,5.87713575 C11.9028755,6.00512231 11.7416125,6.55546455 11.7390527,6.59002092 C9.00397981,5.36774922 7.11617797,3.00767694 6.3994532,0.311 C4.40414263,1.88779449 4.83673723,4.16723523 5.37940027,5.14505259 C4.9122493,4.94027409 4.50653189,4.64718485 4.17376682,4.30034126 C3.59398767,5.91681158 4.19040507,7.69454498 5.55858146,8.6518845 C4.88537212,8.56997309 4.21728225,8.13481877 3.96642858,7.94411879 C3.85636013,9.45436026 4.66651509,10.9313252 6.09100557,11.6160534 C3.17675147,12.3161399 0.846116104,11.1361037 0.809,11.1220252 C1.86488917,12.5593144 3.30473803,13.7547089 5.07351237,14.4842323 C11.5573118,17.1668307 17.2923898,12.8268063 18.6324092,8.54181605 C19.4796802,8.51237914 20.2923949,8.17961407 20.920809,7.61007385" id="Fill-6" sketch:type="MSShapeGroup"></path>
            </g>
        </g>
    </g>
</svg>